<svg width="345" height="204" viewBox="0 0 345 204" fill="none" xmlns="http://www.w3.org/2000/svg">
<path d="M19.6591 0.81818L31.5909 41.8409H32.0455L43.9773 0.81818H61.8182L42.6136 59H21.0227L1.81818 0.81818H19.6591ZM65.8219 59V0.81818H90.9355C95.2537 0.81818 99.0321 1.60417 102.271 3.17614C105.509 4.74811 108.028 7.01136 109.828 9.96591C111.627 12.9205 112.526 16.4621 112.526 20.5909C112.526 24.7576 111.598 28.2708 109.742 31.1307C107.905 33.9905 105.32 36.1496 101.987 37.608C98.6723 39.0663 94.7991 39.7955 90.3673 39.7955H75.3673V27.5227H87.1855C89.0416 27.5227 90.623 27.2955 91.9298 26.8409C93.2556 26.3674 94.2688 25.6193 94.9696 24.5966C95.6893 23.5739 96.0492 22.2386 96.0492 20.5909C96.0492 18.9242 95.6893 17.5701 94.9696 16.5284C94.2688 15.4678 93.2556 14.6913 91.9298 14.1989C90.623 13.6875 89.0416 13.4318 87.1855 13.4318H81.6173V59H65.8219ZM99.9128 32.2955L114.458 59H97.2992L83.0946 32.2955H99.9128Z" fill="#ECECEC"/>
<path d="M20.6818 70.8182L30.2273 87.75H30.6818L40.3409 70.8182H57.9545L40.5682 99.9091L58.6364 129H40.5682L30.6818 111.727H30.2273L20.3409 129H2.38636L20.2273 99.9091L2.95455 70.8182H20.6818ZM78.9611 70.8182V129H63.1656V70.8182H78.9611ZM100.756 70.8182L112.688 111.841H113.142L125.074 70.8182H142.915L123.711 129H102.12L82.9151 70.8182H100.756Z" fill="black"/>
<path opacity="0.4" d="M169.003 74.2727V83H167.793L163.357 76.5994H163.276V83H161.959V74.2727H163.178L167.618 80.6818H167.699V74.2727H169.003ZM173.642 83.1321C172.998 83.1321 172.442 82.9943 171.976 82.7188C171.513 82.4403 171.155 82.0497 170.902 81.5469C170.652 81.0412 170.527 80.4489 170.527 79.7699C170.527 79.0994 170.652 78.5085 170.902 77.9972C171.155 77.4858 171.507 77.0866 171.959 76.7997C172.414 76.5128 172.945 76.3693 173.553 76.3693C173.922 76.3693 174.28 76.4304 174.627 76.5526C174.973 76.6747 175.284 76.8665 175.56 77.1278C175.836 77.3892 176.053 77.7287 176.212 78.1463C176.371 78.5611 176.451 79.0653 176.451 79.6591V80.1108H171.248V79.1562H175.202C175.202 78.821 175.134 78.5241 174.998 78.2656C174.861 78.0043 174.669 77.7983 174.422 77.6477C174.178 77.4972 173.891 77.4219 173.561 77.4219C173.203 77.4219 172.891 77.5099 172.624 77.6861C172.36 77.8594 172.155 78.0866 172.01 78.3679C171.868 78.6463 171.797 78.9489 171.797 79.2756V80.0213C171.797 80.4588 171.874 80.831 172.027 81.1378C172.184 81.4446 172.401 81.679 172.679 81.8409C172.958 82 173.283 82.0795 173.655 82.0795C173.897 82.0795 174.117 82.0455 174.316 81.9773C174.515 81.9062 174.686 81.8011 174.831 81.6619C174.976 81.5227 175.087 81.3509 175.164 81.1463L176.37 81.3636C176.273 81.7187 176.1 82.0298 175.85 82.2969C175.603 82.5611 175.292 82.767 174.917 82.9148C174.544 83.0597 174.12 83.1321 173.642 83.1321ZM179.769 83.1449C179.354 83.1449 178.979 83.0682 178.644 82.9148C178.309 82.7585 178.043 82.5327 177.847 82.2372C177.654 81.9418 177.558 81.5795 177.558 81.1506C177.558 80.7812 177.629 80.4773 177.771 80.2386C177.913 80 178.104 79.8111 178.346 79.6719C178.587 79.5327 178.857 79.4276 179.156 79.3565C179.454 79.2855 179.758 79.2315 180.067 79.1946C180.46 79.1491 180.778 79.1122 181.022 79.0838C181.266 79.0526 181.444 79.0028 181.555 78.9347C181.665 78.8665 181.721 78.7557 181.721 78.6023V78.5724C181.721 78.2003 181.616 77.9119 181.406 77.7074C181.198 77.5028 180.888 77.4006 180.477 77.4006C180.048 77.4006 179.71 77.4957 179.462 77.6861C179.218 77.8736 179.049 78.0824 178.955 78.3125L177.758 78.0398C177.9 77.642 178.107 77.321 178.38 77.0767C178.656 76.8295 178.972 76.6506 179.33 76.5398C179.688 76.4261 180.065 76.3693 180.46 76.3693C180.721 76.3693 180.998 76.4006 181.29 76.4631C181.586 76.5227 181.862 76.6335 182.117 76.7955C182.376 76.9574 182.587 77.1889 182.752 77.4901C182.917 77.7884 182.999 78.1761 182.999 78.6534V83H181.755V82.1051H181.704C181.621 82.2699 181.498 82.4318 181.333 82.5909C181.168 82.75 180.957 82.8821 180.698 82.9872C180.44 83.0923 180.13 83.1449 179.769 83.1449ZM180.046 82.1222C180.398 82.1222 180.7 82.0526 180.95 81.9134C181.202 81.7741 181.394 81.5923 181.525 81.3679C181.658 81.1406 181.725 80.8977 181.725 80.6392V79.7955C181.68 79.8409 181.592 79.8835 181.461 79.9233C181.333 79.9602 181.187 79.9929 181.022 80.0213C180.857 80.0469 180.697 80.071 180.54 80.0938C180.384 80.1136 180.254 80.1307 180.148 80.1449C179.901 80.1761 179.675 80.2287 179.471 80.3026C179.269 80.3764 179.107 80.483 178.985 80.6222C178.866 80.7585 178.806 80.9403 178.806 81.1676C178.806 81.483 178.923 81.7216 179.156 81.8835C179.388 82.0426 179.685 82.1222 180.046 82.1222ZM184.696 83V76.4545H185.928V77.4943H185.996C186.115 77.142 186.326 76.8651 186.627 76.6634C186.931 76.4588 187.275 76.3565 187.658 76.3565C187.738 76.3565 187.831 76.3594 187.939 76.3651C188.05 76.3707 188.137 76.3778 188.199 76.3864V77.6051C188.148 77.5909 188.057 77.5753 187.926 77.5582C187.796 77.5384 187.665 77.5284 187.534 77.5284C187.233 77.5284 186.965 77.5923 186.729 77.7202C186.496 77.8452 186.311 78.0199 186.175 78.2443C186.039 78.4659 185.971 78.7187 185.971 79.0028V83H184.696ZM192.772 78.7599V79.8636H188.902V78.7599H192.772ZM197.585 76.4545V77.4773H193.886V76.4545H197.585ZM194.9 83V75.696C194.9 75.2869 194.99 74.9474 195.169 74.6776C195.348 74.4048 195.585 74.2017 195.88 74.0682C196.176 73.9318 196.497 73.8636 196.843 73.8636C197.099 73.8636 197.318 73.8849 197.5 73.9276C197.681 73.9673 197.816 74.0043 197.904 74.0384L197.606 75.0696C197.547 75.0526 197.47 75.0327 197.376 75.0099C197.282 74.9844 197.169 74.9716 197.035 74.9716C196.725 74.9716 196.504 75.0483 196.37 75.2017C196.24 75.3551 196.174 75.5767 196.174 75.8665V83H194.9ZM198.9 83V76.4545H200.174V83H198.9ZM199.543 75.4446C199.321 75.4446 199.131 75.3707 198.972 75.223C198.816 75.0724 198.738 74.8935 198.738 74.6861C198.738 74.4759 198.816 74.2969 198.972 74.1491C199.131 73.9986 199.321 73.9233 199.543 73.9233C199.765 73.9233 199.953 73.9986 200.11 74.1491C200.269 74.2969 200.348 74.4759 200.348 74.6861C200.348 74.8935 200.269 75.0724 200.11 75.223C199.953 75.3707 199.765 75.4446 199.543 75.4446ZM204.709 83.1321C204.064 83.1321 203.509 82.9943 203.043 82.7188C202.58 82.4403 202.222 82.0497 201.969 81.5469C201.719 81.0412 201.594 80.4489 201.594 79.7699C201.594 79.0994 201.719 78.5085 201.969 77.9972C202.222 77.4858 202.574 77.0866 203.026 76.7997C203.48 76.5128 204.011 76.3693 204.619 76.3693C204.989 76.3693 205.347 76.4304 205.693 76.5526C206.04 76.6747 206.351 76.8665 206.626 77.1278C206.902 77.3892 207.119 77.7287 207.278 78.1463C207.438 78.5611 207.517 79.0653 207.517 79.6591V80.1108H202.314V79.1562H206.268C206.268 78.821 206.2 78.5241 206.064 78.2656C205.928 78.0043 205.736 77.7983 205.489 77.6477C205.244 77.4972 204.957 77.4219 204.628 77.4219C204.27 77.4219 203.957 77.5099 203.69 77.6861C203.426 77.8594 203.222 78.0866 203.077 78.3679C202.935 78.6463 202.864 78.9489 202.864 79.2756V80.0213C202.864 80.4588 202.94 80.831 203.094 81.1378C203.25 81.4446 203.467 81.679 203.746 81.8409C204.024 82 204.349 82.0795 204.722 82.0795C204.963 82.0795 205.183 82.0455 205.382 81.9773C205.581 81.9062 205.753 81.8011 205.898 81.6619C206.043 81.5227 206.153 81.3509 206.23 81.1463L207.436 81.3636C207.339 81.7187 207.166 82.0298 206.916 82.2969C206.669 82.5611 206.358 82.767 205.983 82.9148C205.611 83.0597 205.186 83.1321 204.709 83.1321ZM210.205 74.2727V83H208.931V74.2727H210.205ZM214.369 83.1278C213.841 83.1278 213.369 82.9929 212.955 82.723C212.543 82.4503 212.219 82.0625 211.983 81.5597C211.75 81.054 211.634 80.4474 211.634 79.7401C211.634 79.0327 211.751 78.4276 211.987 77.9247C212.226 77.4219 212.553 77.0369 212.967 76.7699C213.382 76.5028 213.852 76.3693 214.378 76.3693C214.784 76.3693 215.111 76.4375 215.358 76.5739C215.608 76.7074 215.801 76.8636 215.938 77.0426C216.077 77.2216 216.185 77.3793 216.261 77.5156H216.338V74.2727H217.612V83H216.368V81.9815H216.261C216.185 82.1207 216.074 82.2798 215.929 82.4588C215.787 82.6378 215.591 82.794 215.341 82.9276C215.091 83.0611 214.767 83.1278 214.369 83.1278ZM214.651 82.0412C215.017 82.0412 215.327 81.9446 215.58 81.7514C215.835 81.5554 216.028 81.2841 216.159 80.9375C216.293 80.5909 216.359 80.1875 216.359 79.7273C216.359 79.2727 216.294 78.875 216.163 78.5341C216.033 78.1932 215.841 77.9276 215.588 77.7372C215.335 77.5469 215.023 77.4517 214.651 77.4517C214.267 77.4517 213.947 77.5511 213.692 77.75C213.436 77.9489 213.243 78.2202 213.112 78.5639C212.984 78.9077 212.92 79.2955 212.92 79.7273C212.92 80.1648 212.986 80.5582 213.116 80.9077C213.247 81.2571 213.44 81.5341 213.696 81.7386C213.955 81.9403 214.273 82.0412 214.651 82.0412ZM225.364 83.1321C224.73 83.1321 224.185 82.9886 223.727 82.7017C223.273 82.4119 222.923 82.0128 222.679 81.5043C222.435 80.9957 222.312 80.4134 222.312 79.7571C222.312 79.0923 222.438 78.5057 222.688 77.9972C222.938 77.4858 223.29 77.0866 223.744 76.7997C224.199 76.5128 224.734 76.3693 225.351 76.3693C225.848 76.3693 226.291 76.4616 226.68 76.6463C227.07 76.8281 227.384 77.0838 227.622 77.4134C227.864 77.7429 228.007 78.1278 228.053 78.5682H226.812C226.744 78.2614 226.588 77.9972 226.344 77.7756C226.102 77.554 225.778 77.4432 225.372 77.4432C225.017 77.4432 224.706 77.5369 224.439 77.7244C224.175 77.9091 223.969 78.1733 223.821 78.517C223.673 78.858 223.599 79.2614 223.599 79.7273C223.599 80.2045 223.672 80.6165 223.817 80.9631C223.962 81.3097 224.166 81.5781 224.43 81.7685C224.697 81.9588 225.011 82.054 225.372 82.054C225.614 82.054 225.832 82.0099 226.028 81.9219C226.227 81.831 226.393 81.7017 226.527 81.5341C226.663 81.3665 226.759 81.1648 226.812 80.929H228.053C228.007 81.3523 227.869 81.7301 227.639 82.0625C227.409 82.3949 227.101 82.6562 226.714 82.8466C226.331 83.0369 225.881 83.1321 225.364 83.1321ZM232.172 83.1321C231.559 83.1321 231.023 82.9915 230.566 82.7102C230.108 82.429 229.753 82.0355 229.5 81.5298C229.248 81.0241 229.121 80.4332 229.121 79.7571C229.121 79.0781 229.248 78.4844 229.5 77.9759C229.753 77.4673 230.108 77.0724 230.566 76.7912C231.023 76.5099 231.559 76.3693 232.172 76.3693C232.786 76.3693 233.321 76.5099 233.779 76.7912C234.236 77.0724 234.591 77.4673 234.844 77.9759C235.097 78.4844 235.223 79.0781 235.223 79.7571C235.223 80.4332 235.097 81.0241 234.844 81.5298C234.591 82.0355 234.236 82.429 233.779 82.7102C233.321 82.9915 232.786 83.1321 232.172 83.1321ZM232.176 82.0625C232.574 82.0625 232.904 81.9574 233.165 81.7472C233.426 81.5369 233.62 81.2571 233.745 80.9077C233.873 80.5582 233.936 80.1733 233.936 79.7528C233.936 79.3352 233.873 78.9517 233.745 78.6023C233.62 78.25 233.426 77.9673 233.165 77.7543C232.904 77.5412 232.574 77.4347 232.176 77.4347C231.776 77.4347 231.444 77.5412 231.179 77.7543C230.918 77.9673 230.723 78.25 230.596 78.6023C230.471 78.9517 230.408 79.3352 230.408 79.7528C230.408 80.1733 230.471 80.5582 230.596 80.9077C230.723 81.2571 230.918 81.5369 231.179 81.7472C231.444 81.9574 231.776 82.0625 232.176 82.0625ZM236.646 83V76.4545H237.869V77.5199H237.95C238.086 77.1591 238.309 76.8778 238.619 76.6761C238.928 76.4716 239.299 76.3693 239.731 76.3693C240.168 76.3693 240.535 76.4716 240.83 76.6761C241.129 76.8807 241.349 77.1619 241.491 77.5199H241.559C241.715 77.1705 241.964 76.892 242.305 76.6847C242.646 76.4744 243.052 76.3693 243.523 76.3693C244.117 76.3693 244.602 76.5554 244.977 76.9276C245.354 77.2997 245.543 77.8608 245.543 78.6108V83H244.269V78.7301C244.269 78.2869 244.148 77.9659 243.907 77.767C243.665 77.5682 243.377 77.4688 243.042 77.4688C242.627 77.4688 242.305 77.5966 242.075 77.8523C241.844 78.1051 241.729 78.4304 241.729 78.8281V83H240.46V78.6491C240.46 78.294 240.349 78.0085 240.127 77.7926C239.906 77.5767 239.617 77.4688 239.262 77.4688C239.021 77.4688 238.798 77.5327 238.593 77.6605C238.391 77.7855 238.228 77.9602 238.103 78.1847C237.981 78.4091 237.92 78.669 237.92 78.9645V83H236.646ZM247.251 83V76.4545H248.474V77.5199H248.555C248.691 77.1591 248.914 76.8778 249.224 76.6761C249.534 76.4716 249.904 76.3693 250.336 76.3693C250.774 76.3693 251.14 76.4716 251.436 76.6761C251.734 76.8807 251.954 77.1619 252.096 77.5199H252.164C252.321 77.1705 252.569 76.892 252.91 76.6847C253.251 76.4744 253.657 76.3693 254.129 76.3693C254.723 76.3693 255.207 76.5554 255.582 76.9276C255.96 77.2997 256.149 77.8608 256.149 78.6108V83H254.875V78.7301C254.875 78.2869 254.754 77.9659 254.512 77.767C254.271 77.5682 253.983 77.4688 253.647 77.4688C253.233 77.4688 252.91 77.5966 252.68 77.8523C252.45 78.1051 252.335 78.4304 252.335 78.8281V83H251.065V78.6491C251.065 78.294 250.954 78.0085 250.733 77.7926C250.511 77.5767 250.223 77.4688 249.868 77.4688C249.626 77.4688 249.403 77.5327 249.199 77.6605C248.997 77.7855 248.833 77.9602 248.708 78.1847C248.586 78.4091 248.525 78.669 248.525 78.9645V83H247.251ZM262.003 80.2855V76.4545H263.281V83H262.028V81.8665H261.96C261.81 82.2159 261.568 82.5071 261.236 82.7401C260.906 82.9702 260.496 83.0852 260.004 83.0852C259.584 83.0852 259.212 82.9929 258.888 82.8082C258.567 82.6207 258.314 82.3438 258.129 81.9773C257.947 81.6108 257.857 81.1577 257.857 80.6179V76.4545H259.131V80.4645C259.131 80.9105 259.254 81.2656 259.501 81.5298C259.749 81.794 260.07 81.9261 260.464 81.9261C260.703 81.9261 260.94 81.8665 261.176 81.7472C261.415 81.6278 261.612 81.4474 261.768 81.206C261.928 80.9645 262.006 80.6577 262.003 80.2855ZM266.267 79.1136V83H264.993V76.4545H266.216V77.5199H266.297C266.448 77.1733 266.684 76.8949 267.005 76.6847C267.328 76.4744 267.736 76.3693 268.228 76.3693C268.674 76.3693 269.064 76.4631 269.4 76.6506C269.735 76.8352 269.995 77.1108 270.179 77.4773C270.364 77.8437 270.456 78.2969 270.456 78.8366V83H269.182V78.9901C269.182 78.5156 269.059 78.1449 268.811 77.8778C268.564 77.608 268.225 77.473 267.793 77.473C267.498 77.473 267.235 77.5369 267.005 77.6648C266.777 77.7926 266.597 77.9801 266.463 78.2273C266.333 78.4716 266.267 78.767 266.267 79.1136ZM272.165 83V76.4545H273.439V83H272.165ZM272.809 75.4446C272.587 75.4446 272.397 75.3707 272.238 75.223C272.081 75.0724 272.003 74.8935 272.003 74.6861C272.003 74.4759 272.081 74.2969 272.238 74.1491C272.397 73.9986 272.587 73.9233 272.809 73.9233C273.03 73.9233 273.219 73.9986 273.375 74.1491C273.534 74.2969 273.614 74.4759 273.614 74.6861C273.614 74.8935 273.534 75.0724 273.375 75.223C273.219 75.3707 273.03 75.4446 272.809 75.4446ZM277.911 83.1321C277.277 83.1321 276.732 82.9886 276.274 82.7017C275.82 82.4119 275.47 82.0128 275.226 81.5043C274.982 80.9957 274.859 80.4134 274.859 79.7571C274.859 79.0923 274.984 78.5057 275.234 77.9972C275.484 77.4858 275.837 77.0866 276.291 76.7997C276.746 76.5128 277.281 76.3693 277.898 76.3693C278.395 76.3693 278.838 76.4616 279.227 76.6463C279.616 76.8281 279.93 77.0838 280.169 77.4134C280.411 77.7429 280.554 78.1278 280.599 78.5682H279.359C279.291 78.2614 279.135 77.9972 278.891 77.7756C278.649 77.554 278.325 77.4432 277.919 77.4432C277.564 77.4432 277.253 77.5369 276.986 77.7244C276.722 77.9091 276.516 78.1733 276.368 78.517C276.22 78.858 276.146 79.2614 276.146 79.7273C276.146 80.2045 276.219 80.6165 276.364 80.9631C276.509 81.3097 276.713 81.5781 276.977 81.7685C277.244 81.9588 277.558 82.054 277.919 82.054C278.161 82.054 278.379 82.0099 278.575 81.9219C278.774 81.831 278.94 81.7017 279.074 81.5341C279.21 81.3665 279.305 81.1648 279.359 80.929H280.599C280.554 81.3523 280.416 81.7301 280.186 82.0625C279.956 82.3949 279.648 82.6562 279.261 82.8466C278.878 83.0369 278.428 83.1321 277.911 83.1321ZM283.867 83.1449C283.452 83.1449 283.077 83.0682 282.742 82.9148C282.407 82.7585 282.141 82.5327 281.945 82.2372C281.752 81.9418 281.655 81.5795 281.655 81.1506C281.655 80.7812 281.726 80.4773 281.868 80.2386C282.01 80 282.202 79.8111 282.444 79.6719C282.685 79.5327 282.955 79.4276 283.253 79.3565C283.551 79.2855 283.855 79.2315 284.165 79.1946C284.557 79.1491 284.875 79.1122 285.12 79.0838C285.364 79.0526 285.542 79.0028 285.652 78.9347C285.763 78.8665 285.819 78.7557 285.819 78.6023V78.5724C285.819 78.2003 285.713 77.9119 285.503 77.7074C285.296 77.5028 284.986 77.4006 284.574 77.4006C284.145 77.4006 283.807 77.4957 283.56 77.6861C283.316 77.8736 283.147 78.0824 283.053 78.3125L281.855 78.0398C281.998 77.642 282.205 77.321 282.478 77.0767C282.753 76.8295 283.07 76.6506 283.428 76.5398C283.786 76.4261 284.162 76.3693 284.557 76.3693C284.819 76.3693 285.096 76.4006 285.388 76.4631C285.684 76.5227 285.959 76.6335 286.215 76.7955C286.473 76.9574 286.685 77.1889 286.85 77.4901C287.015 77.7884 287.097 78.1761 287.097 78.6534V83H285.853V82.1051H285.801C285.719 82.2699 285.596 82.4318 285.431 82.5909C285.266 82.75 285.054 82.8821 284.796 82.9872C284.537 83.0923 284.228 83.1449 283.867 83.1449ZM284.144 82.1222C284.496 82.1222 284.797 82.0526 285.047 81.9134C285.3 81.7741 285.492 81.5923 285.623 81.3679C285.756 81.1406 285.823 80.8977 285.823 80.6392V79.7955C285.777 79.8409 285.689 79.8835 285.559 79.9233C285.431 79.9602 285.284 79.9929 285.12 80.0213C284.955 80.0469 284.794 80.071 284.638 80.0938C284.482 80.1136 284.351 80.1307 284.246 80.1449C283.999 80.1761 283.773 80.2287 283.569 80.3026C283.367 80.3764 283.205 80.483 283.083 80.6222C282.963 80.7585 282.904 80.9403 282.904 81.1676C282.904 81.483 283.02 81.7216 283.253 81.8835C283.486 82.0426 283.783 82.1222 284.144 82.1222ZM291.849 76.4545V77.4773H288.274V76.4545H291.849ZM289.233 74.8864H290.507V81.0781C290.507 81.3253 290.544 81.5114 290.618 81.6364C290.692 81.7585 290.787 81.8423 290.903 81.8878C291.023 81.9304 291.152 81.9517 291.291 81.9517C291.393 81.9517 291.483 81.9446 291.56 81.9304C291.636 81.9162 291.696 81.9048 291.739 81.8963L291.969 82.9489C291.895 82.9773 291.79 83.0057 291.653 83.0341C291.517 83.0653 291.347 83.0824 291.142 83.0852C290.807 83.0909 290.494 83.0312 290.205 82.9062C289.915 82.7812 289.68 82.5881 289.501 82.3267C289.322 82.0653 289.233 81.7372 289.233 81.3423V74.8864ZM293.259 83V76.4545H294.533V83H293.259ZM293.902 75.4446C293.681 75.4446 293.49 75.3707 293.331 75.223C293.175 75.0724 293.097 74.8935 293.097 74.6861C293.097 74.4759 293.175 74.2969 293.331 74.1491C293.49 73.9986 293.681 73.9233 293.902 73.9233C294.124 73.9233 294.313 73.9986 294.469 74.1491C294.628 74.2969 294.708 74.4759 294.708 74.6861C294.708 74.8935 294.628 75.0724 294.469 75.223C294.313 75.3707 294.124 75.4446 293.902 75.4446ZM299.004 83.1321C298.391 83.1321 297.855 82.9915 297.398 82.7102C296.94 82.429 296.585 82.0355 296.332 81.5298C296.08 81.0241 295.953 80.4332 295.953 79.7571C295.953 79.0781 296.08 78.4844 296.332 77.9759C296.585 77.4673 296.94 77.0724 297.398 76.7912C297.855 76.5099 298.391 76.3693 299.004 76.3693C299.618 76.3693 300.153 76.5099 300.611 76.7912C301.068 77.0724 301.423 77.4673 301.676 77.9759C301.929 78.4844 302.055 79.0781 302.055 79.7571C302.055 80.4332 301.929 81.0241 301.676 81.5298C301.423 82.0355 301.068 82.429 300.611 82.7102C300.153 82.9915 299.618 83.1321 299.004 83.1321ZM299.009 82.0625C299.406 82.0625 299.736 81.9574 299.997 81.7472C300.259 81.5369 300.452 81.2571 300.577 80.9077C300.705 80.5582 300.768 80.1733 300.768 79.7528C300.768 79.3352 300.705 78.9517 300.577 78.6023C300.452 78.25 300.259 77.9673 299.997 77.7543C299.736 77.5412 299.406 77.4347 299.009 77.4347C298.608 77.4347 298.276 77.5412 298.011 77.7543C297.75 77.9673 297.555 78.25 297.428 78.6023C297.303 78.9517 297.24 79.3352 297.24 79.7528C297.24 80.1733 297.303 80.5582 297.428 80.9077C297.555 81.2571 297.75 81.5369 298.011 81.7472C298.276 81.9574 298.608 82.0625 299.009 82.0625ZM304.752 79.1136V83H303.478V76.4545H304.701V77.5199H304.782C304.932 77.1733 305.168 76.8949 305.489 76.6847C305.813 76.4744 306.221 76.3693 306.712 76.3693C307.158 76.3693 307.549 76.4631 307.884 76.6506C308.219 76.8352 308.479 77.1108 308.664 77.4773C308.848 77.8437 308.941 78.2969 308.941 78.8366V83H307.667V78.9901C307.667 78.5156 307.543 78.1449 307.296 77.8778C307.049 77.608 306.709 77.473 306.277 77.473C305.982 77.473 305.719 77.5369 305.489 77.6648C305.262 77.7926 305.081 77.9801 304.948 78.2273C304.817 78.4716 304.752 78.767 304.752 79.1136Z" fill="#1E1E1E"/>
<path opacity="0.2" d="M342.307 69.3636L329.182 118.125H327.83L340.955 69.3636H342.307Z" fill="#1E1E1E"/>
<path d="M26.25 177.409H38.5227L42.9545 182.977L50.4545 191.5L60.2273 203.318H46.25L39.3182 195.25L34.6591 188.545L26.25 177.409ZM60.1136 169.909C60.1136 176.386 58.8542 181.85 56.3352 186.301C53.8163 190.733 50.4167 194.095 46.1364 196.386C41.8561 198.659 37.0833 199.795 31.8182 199.795C26.5152 199.795 21.7235 198.65 17.4432 196.358C13.1818 194.047 9.79167 190.676 7.27273 186.244C4.77273 181.794 3.52273 176.348 3.52273 169.909C3.52273 163.432 4.77273 157.977 7.27273 153.545C9.79167 149.095 13.1818 145.733 17.4432 143.46C21.7235 141.169 26.5152 140.023 31.8182 140.023C37.0833 140.023 41.8561 141.169 46.1364 143.46C50.4167 145.733 53.8163 149.095 56.3352 153.545C58.8542 157.977 60.1136 163.432 60.1136 169.909ZM43.8636 169.909C43.8636 166.424 43.3996 163.489 42.4716 161.102C41.5625 158.697 40.2083 156.879 38.4091 155.648C36.6288 154.398 34.4318 153.773 31.8182 153.773C29.2045 153.773 26.9981 154.398 25.1989 155.648C23.4186 156.879 22.0644 158.697 21.1364 161.102C20.2273 163.489 19.7727 166.424 19.7727 169.909C19.7727 173.394 20.2273 176.339 21.1364 178.744C22.0644 181.131 23.4186 182.949 25.1989 184.199C26.9981 185.43 29.2045 186.045 31.8182 186.045C34.4318 186.045 36.6288 185.43 38.4091 184.199C40.2083 182.949 41.5625 181.131 42.4716 178.744C43.3996 176.339 43.8636 173.394 43.8636 169.909ZM65.9 199V140.818H91.0136C95.3318 140.818 99.1102 141.604 102.349 143.176C105.588 144.748 108.106 147.011 109.906 149.966C111.705 152.92 112.605 156.462 112.605 160.591C112.605 164.758 111.677 168.271 109.82 171.131C107.983 173.991 105.398 176.15 102.065 177.608C98.7504 179.066 94.8773 179.795 90.4455 179.795H75.4455V167.523H87.2636C89.1197 167.523 90.7011 167.295 92.008 166.841C93.3337 166.367 94.347 165.619 95.0477 164.597C95.7674 163.574 96.1273 162.239 96.1273 160.591C96.1273 158.924 95.7674 157.57 95.0477 156.528C94.347 155.468 93.3337 154.691 92.008 154.199C90.7011 153.687 89.1197 153.432 87.2636 153.432H81.6955V199H65.9ZM99.9909 172.295L114.536 199H97.3773L83.1727 172.295H99.9909Z" fill="black"/>
</svg>
